# xmcd
#
# Track frame offsets:
#	150
#	18072
#	32922
#	45897
#	62173
#	86696
#	104322
#	118272
#	134246
#	148421
#	162446
#	174219
#	202647
#	221772
#
# Disc length: 3385 seconds
#
# Revision: 2
# Processed by: cddbd v1.5PL3 Copyright (c) Steve Scherf et al.
# Submitted via: EasyCDDAExtractor 6.2.0.3
#
DISCID=c60d370e
DTITLE=María José Quintanilla - Canta América
DYEAR=2004
DGENRE=Rojo
TTITLE0=Viva Chile
TTITLE1=Canción con Todos
TTITLE2=De que manera te Olvido
TTITLE3=El Compañero Nuevo
TTITLE4=Mi Tierra, Abriendo Puertas
TTITLE5=No Tengo Dinero
TTITLE6=Gracias a la Vida
TTITLE7=Angelitos Negros
TTITLE8=Me Nace el Corazón
TTITLE9=La Muerte del Palomo
TTITLE10=Donde Estará mi Vida
TTITLE11=Amor eterno, Te Sigo Amamando, El Noa Noa
TTITLE12=Preciosa, Lamento Borincano
TTITLE13=La Jardinera
EXTD=
EXTT0=
EXTT1=
EXTT2=
EXTT3=
EXTT4=
EXTT5=
EXTT6=
EXTT7=
EXTT8=
EXTT9=
EXTT10=
EXTT11=
EXTT12=
EXTT13=
PLAYORDER=
